<svg width="524" height="348" viewBox="0 0 524 348" fill="none" xmlns="http://www.w3.org/2000/svg">
<g clip-path="url(#clip0_34_4621)">
<path d="M265.454 97.809C260.782 90.0804 255.245 81.8285 246.575 79.3049C236.534 76.3824 226.219 82.188 217.47 87.917C191.305 105.051 166.108 123.619 141.993 143.536L142.02 143.836C160.794 142.541 179.568 141.246 198.342 139.951C211.906 139.016 225.936 137.951 237.923 131.533C242.472 129.098 246.906 125.845 252.06 125.618C258.464 125.337 264.048 129.81 268.436 134.483C294.393 162.128 301.904 204.403 331.025 228.691C312.662 183.398 290.736 139.634 265.454 97.809Z" fill="#F2F2F2"/>
<path d="M425.006 332.285C422.136 328.66 420.963 327.811 418.132 324.152C395.078 294.33 373.408 263.501 353.124 231.665C339.347 210.043 326.252 188.006 313.841 165.553C307.932 154.879 302.185 144.121 296.6 133.28C292.267 124.873 288.03 116.417 283.89 107.91C282.706 105.48 281.555 103.039 280.41 100.592C277.713 94.8392 275.065 89.0581 272.223 83.383C268.984 76.9149 265.041 70.1339 259.093 65.7883C256.386 63.7295 253.149 62.4838 249.761 62.1968C244.919 61.884 240.451 63.8836 236.251 66.0676C205.523 82.0928 176.756 102.184 150.737 125.046C124.65 147.96 101.333 173.846 81.2612 202.178C80.6471 203.055 79.195 202.217 79.8148 201.335C82.2555 197.883 84.7444 194.468 87.2818 191.091C118.832 149.124 157.517 113.034 201.569 84.4722C208.981 79.6686 216.531 75.0902 224.221 70.7372C228.097 68.542 231.99 66.3748 235.949 64.3416C239.831 62.3476 243.952 60.5545 248.387 60.4875C263.477 60.2529 271.29 77.345 276.657 88.8458C278.344 92.4653 280.051 96.0736 281.778 99.6708C288.307 113.328 295.087 126.86 302.118 140.267C306.458 148.545 310.892 156.775 315.421 164.956C329.517 190.432 344.5 215.392 360.368 239.837C381.389 272.217 402.243 300.821 426.191 331.1C426.85 331.938 425.671 333.134 425.006 332.285Z" fill="#E4E4E4"/>
<path d="M149.245 116.606C148.368 115.629 147.497 114.651 146.615 113.674C139.656 105.977 132.189 98.3693 122.634 93.9566C118.077 91.7862 113.104 90.6331 108.057 90.5773C102.841 90.5941 97.7422 91.9626 92.9225 93.8785C90.6439 94.7889 88.4154 95.8223 86.2207 96.9226C83.713 98.185 81.2501 99.5311 78.7985 100.888C74.1965 103.435 69.6542 106.094 65.1716 108.865C56.2526 114.378 47.6128 120.312 39.2524 126.666C34.9184 129.962 30.6739 133.365 26.5189 136.877C22.6542 140.139 18.8678 143.488 15.1595 146.925C14.3665 147.657 13.1824 146.473 13.9754 145.741C14.9527 144.831 15.9413 143.926 16.9298 143.032C19.7222 140.507 22.5593 138.031 25.4412 135.603C30.6963 131.168 36.0875 126.904 41.6148 122.812C50.2099 116.444 59.1009 110.509 68.2877 105.005C72.8786 102.257 77.5326 99.6242 82.2498 97.107C83.674 96.3473 85.115 95.6044 86.5725 94.9006C89.8799 93.2321 93.3163 91.833 96.8485 90.717C101.852 89.0981 107.146 88.578 112.369 89.1921C117.412 89.9257 122.27 91.6068 126.688 94.1466C136.071 99.3915 143.348 107.502 150.429 115.417C151.144 116.221 149.966 117.411 149.245 116.606Z" fill="#E4E4E4"/>
<path d="M341.488 196.368L363.97 188.144L375.133 184.06C378.768 182.73 382.395 181.216 386.153 180.264C389.419 179.331 392.887 179.375 396.128 180.391C399.019 181.461 401.665 183.102 403.909 185.215C406.201 187.326 408.334 189.604 410.29 192.031C412.72 194.952 415.115 197.904 417.52 200.845C427.446 212.987 437.308 225.181 447.105 237.429C456.902 249.675 466.633 261.974 476.298 274.325C485.987 286.706 495.61 299.139 505.166 311.624C506.336 313.153 507.506 314.684 508.675 316.215C509.32 317.06 510.776 316.226 510.121 315.369C500.495 302.759 490.801 290.2 481.041 277.693C471.256 265.156 461.404 252.672 451.484 240.242C441.564 227.812 431.578 215.435 421.524 203.113C419.019 200.043 416.511 196.976 413.998 193.913C411.878 191.329 409.782 188.718 407.457 186.313C403.189 181.898 397.857 177.997 391.475 177.891C387.722 177.829 384.091 179.02 380.604 180.281C376.845 181.641 373.096 183.027 369.342 184.4L346.702 192.682L341.042 194.752C340.038 195.12 340.472 196.74 341.488 196.368Z" fill="#E4E4E4"/>
<path d="M119.675 103.642C108.25 97.769 93.6183 98.9192 83.1194 106.256C103.145 109.712 122.952 114.335 142.438 120.103C134.347 115.361 128.017 107.93 119.675 103.642Z" fill="#F2F2F2"/>
<path d="M83.0069 106.236L80.8074 108.024C81.5514 107.398 82.3248 106.812 83.1193 106.256C83.0818 106.25 83.0444 106.243 83.0069 106.236Z" fill="#F2F2F2"/>
<path d="M403.062 196.45C400.849 193.756 398.456 190.935 395.146 189.84L392.055 189.962C415.582 231.54 447.356 267.871 485.427 296.724C457.972 263.299 430.517 229.875 403.062 196.45Z" fill="#F2F2F2"/>
<path d="M210.877 174.223C212.308 179.42 215.53 183.944 219.974 186.993C221.692 188.163 223.724 189.286 224.312 191.28C224.621 192.551 224.431 193.892 223.78 195.027C223.13 196.147 222.34 197.179 221.428 198.098L221.344 198.41C217.081 195.883 213.025 192.687 210.67 188.326C208.314 183.965 207.986 178.249 210.877 174.223Z" fill="#F2F2F2"/>
<path d="M352.823 297.911C354.253 303.108 357.476 307.631 361.919 310.681C363.637 311.851 365.67 312.973 366.258 314.967C366.567 316.238 366.377 317.58 365.726 318.714C365.076 319.835 364.285 320.867 363.373 321.786L363.29 322.098C359.027 319.571 354.97 316.375 352.615 312.013C350.26 307.652 349.931 301.936 352.823 297.911Z" fill="#F2F2F2"/>
<path d="M69.541 289.381C70.9712 294.578 74.1933 299.101 78.6371 302.151C80.3552 303.321 82.3879 304.443 82.9757 306.437C83.2848 307.708 83.0943 309.05 82.4435 310.184C81.7937 311.304 81.0032 312.337 80.0911 313.256L80.0079 313.568C75.7444 311.041 71.6883 307.845 69.3331 303.483C66.978 299.122 66.6492 293.406 69.541 289.381Z" fill="#F2F2F2"/>
<path d="M395.528 62.1485C412.688 62.1485 426.598 48.2361 426.598 31.0743C426.598 13.9124 412.688 0 395.528 0C378.369 0 364.459 13.9124 364.459 31.0743C364.459 48.2361 378.369 62.1485 395.528 62.1485Z" fill="#FF7872"/>
<path d="M451.597 7.23261C436.539 5.19698 419.349 13.337 415.446 28.0241C414.462 25.4127 412.674 23.1816 410.34 21.6532C408.006 20.1248 405.246 19.3782 402.459 19.5212C399.673 19.6642 397.004 20.6894 394.839 22.4488C392.673 24.2082 391.122 26.6105 390.411 29.3089L392.135 30.5437C424.404 37.5228 457.806 37.3718 490.01 30.1012C479.536 19.0918 466.655 9.26821 451.597 7.23261Z" fill="#F0F0F0"/>
<path d="M387.021 48.665C371.963 46.6293 354.772 54.7693 350.87 69.4564C349.886 66.845 348.098 64.614 345.764 63.0856C343.429 61.5572 340.67 60.8105 337.883 60.9535C335.097 61.0965 332.428 62.1218 330.262 63.8811C328.097 65.6405 326.546 68.0429 325.835 70.7412L327.559 71.9761C359.827 78.9552 393.23 78.8041 425.434 71.5335C414.96 60.5241 402.079 50.7006 387.021 48.665Z" fill="#F0F0F0"/>
<path d="M518.444 56.4992C518.381 56.4993 518.319 56.4897 518.26 56.4707C357.181 5.52219 215.212 12.1846 124.479 26.7453C112.132 28.7261 99.7508 31.014 87.6808 33.5458C84.5994 34.1914 81.4025 34.8834 78.1792 35.6039C74.3297 36.4614 70.5313 37.3444 66.8892 38.2274C65.3162 38.5999 63.7739 38.9753 62.2624 39.3538C59.9728 39.919 57.6496 40.5081 55.1592 41.1554C52.3764 41.873 49.549 42.6257 46.7537 43.3927C46.7435 43.3963 46.7331 43.3993 46.7225 43.4017L46.7228 43.4023C43.5655 44.2644 40.4248 45.1516 37.3877 46.0376C35.7439 46.5124 34.1566 46.9807 32.6363 47.443C32.4665 47.49 32.3159 47.5353 32.1633 47.5817L31.8367 47.681C31.6475 47.7388 31.4607 47.7953 31.2739 47.8488L31.262 47.8524L31.2623 47.853L30.7679 48.0066C30.1783 48.1851 29.603 48.3594 29.0373 48.5331C14.0843 53.1434 5.86411 56.4231 5.7829 56.4552C5.70864 56.485 5.62925 56.4998 5.54925 56.4989C5.46925 56.498 5.39022 56.4813 5.31666 56.4499C5.2431 56.4184 5.17646 56.3728 5.12054 56.3155C5.06462 56.2583 5.02052 56.1906 4.99075 56.1164C4.96099 56.0421 4.94614 55.9627 4.94706 55.8827C4.94798 55.8027 4.96464 55.7236 4.99611 55.6501C5.02757 55.5765 5.07321 55.5098 5.13042 55.4539C5.18764 55.398 5.25531 55.3539 5.32956 55.3241C5.41137 55.292 13.6717 51.9956 28.6791 47.3681C29.247 47.1938 29.8238 47.0194 30.4151 46.8403L30.8744 46.6975C30.8902 46.6916 30.9059 46.6868 30.922 46.682C31.1079 46.6291 31.2935 46.5726 31.4821 46.5154L31.8093 46.4161C31.9724 46.3667 32.133 46.3179 32.2975 46.2727C33.8074 45.8133 35.4001 45.3439 37.048 44.8672C40.0863 43.9807 43.2299 43.0935 46.3896 42.2301C46.3994 42.2265 46.4096 42.2242 46.4194 42.2212C49.2245 41.4518 52.0623 40.6956 54.854 39.9756C57.3483 39.3276 59.6759 38.7373 61.9694 38.1709C63.4874 37.7931 65.0326 37.4168 66.6051 37.0421C70.2514 36.1579 74.0575 35.2737 77.9138 34.4145C81.1422 33.6934 84.3444 32.9996 87.4309 32.3534C99.5196 29.8174 111.92 27.526 124.286 25.5422C215.149 10.9607 357.321 4.28751 518.627 55.3092C518.766 55.353 518.884 55.4449 518.961 55.5685C519.038 55.6921 519.068 55.839 519.046 55.9828C519.024 56.1266 518.951 56.2577 518.84 56.3524C518.73 56.4471 518.589 56.4992 518.444 56.4992Z" fill="#CCCCCC"/>
<path d="M160.215 255.808C160.004 255.191 159.649 254.634 159.179 254.181C159.006 254.02 158.819 253.876 158.619 253.749C157.029 252.689 154.653 252.451 153.142 253.749C152.99 253.881 152.849 254.025 152.722 254.181C152.271 254.736 151.808 255.278 151.333 255.808C150.553 256.698 149.755 257.557 148.92 258.392C148.683 258.623 148.445 258.861 148.202 259.092C148.061 259.232 147.921 259.366 147.781 259.5C147.245 260.012 146.697 260.506 146.142 260.993C145.85 261.255 145.558 261.511 145.259 261.761C144.814 262.133 144.37 262.504 143.919 262.864C143.876 262.894 143.834 262.925 143.791 262.961C143.779 262.967 143.773 262.98 143.76 262.986C143.754 262.986 143.748 262.986 143.742 262.998C143.726 263.004 143.711 263.015 143.699 263.028C143.565 263.12 143.474 263.181 143.407 263.235C143.431 263.223 143.456 263.205 143.48 263.193C143.371 263.278 143.255 263.363 143.145 263.449C142.079 264.235 140.988 264.99 139.874 265.697C137.115 267.463 134.218 269.001 131.211 270.297C131.01 270.376 130.803 270.462 130.595 270.541C122.721 273.767 114.179 275.026 105.709 274.209C104.844 274.142 103.979 274.051 103.114 273.935C102.115 273.789 101.122 273.612 100.135 273.411C96.3777 272.661 92.7014 271.551 89.157 270.096C84.7232 268.066 80.5063 265.591 76.5707 262.712C75.9615 262.279 75.3462 261.846 74.7309 261.426C75.4315 259.708 76.1199 257.989 76.79 256.259C77.1251 255.424 77.448 254.59 77.7648 253.749C80.2564 247.272 82.5958 240.734 84.8377 234.172C87.1039 227.524 89.2423 220.838 91.2527 214.114C91.4598 213.431 91.6608 212.749 91.8558 212.067C92.9097 208.514 93.921 204.954 94.8896 201.386C94.981 201.038 95.0785 200.697 95.1638 200.35C95.444 199.326 95.7181 198.302 95.9862 197.279C96.5954 194.97 95.2186 192.21 92.7939 191.655C91.6265 191.356 90.3885 191.521 89.3408 192.117C88.293 192.712 87.5173 193.691 87.177 194.848C86.9151 195.835 86.6531 196.816 86.3851 197.803C85.0996 202.574 83.7472 207.328 82.3277 212.067C82.1206 212.749 81.9135 213.431 81.7064 214.114C78.575 224.435 75.137 234.653 71.3924 244.768C70.9416 245.992 70.4847 247.213 70.0217 248.43C69.7963 249.027 69.5709 249.624 69.3394 250.221C68.8947 251.397 68.4378 252.573 67.9809 253.749C67.7189 254.437 67.4508 255.126 67.1828 255.808C67.0061 256.241 66.8356 256.673 66.665 257.1C64.928 256.476 63.1284 256.043 61.2978 255.808L61.0054 255.772C59.5862 255.601 58.1509 255.613 56.7349 255.808C54.6155 256.055 52.5762 256.765 50.7614 257.888C48.9465 259.01 47.4003 260.517 46.2321 262.303C43.3262 266.879 43.3627 273.423 47.4383 277.31C51.6358 281.313 57.9898 281.283 62.9305 278.779C65.5488 277.362 67.7564 275.293 69.3394 272.771C69.9458 271.857 70.503 270.911 71.0086 269.938C71.1366 270.023 71.2645 270.108 71.3924 270.2C71.8798 270.541 72.3672 270.888 72.8484 271.229C75.6526 273.261 78.6078 275.076 81.6881 276.658C88.3114 279.952 95.4409 282.108 102.779 283.038C102.943 283.056 103.102 283.08 103.266 283.099C104.077 283.202 104.893 283.281 105.709 283.348C117.42 284.231 129.144 281.834 139.569 276.427C140.452 275.97 141.328 275.491 142.195 274.989C143.541 274.209 144.857 273.38 146.142 272.503C146.843 272.028 147.525 271.546 148.202 271.041C151.157 268.864 153.911 266.427 156.432 263.759C157.388 262.754 158.304 261.716 159.179 260.646C160.007 259.77 160.484 258.621 160.52 257.417C160.515 256.867 160.412 256.322 160.215 255.808ZM59.3362 270.322C59.4641 270.23 59.5921 270.133 59.7139 270.035C59.6774 270.127 59.5006 270.23 59.3362 270.322ZM61.2917 268.354C61.1516 268.512 61.0237 268.67 60.8836 268.829C60.4573 269.306 59.9993 269.754 59.5128 270.169C59.4458 270.23 59.3727 270.291 59.2996 270.346C59.2988 270.346 59.298 270.346 59.2973 270.346C59.2965 270.347 59.2959 270.347 59.2953 270.348C59.2947 270.348 59.2943 270.349 59.294 270.35C59.2937 270.351 59.2935 270.351 59.2935 270.352C59.2055 270.391 59.1201 270.436 59.0376 270.486C58.7757 270.645 58.5076 270.791 58.2335 270.925C57.6968 271.122 57.1446 271.275 56.5826 271.382C56.1507 271.413 55.7173 271.417 55.2849 271.394H55.2728C54.9744 271.328 54.6795 271.246 54.3894 271.15C54.2432 271.077 54.1031 270.992 53.963 270.907C53.9081 270.858 53.8594 270.809 53.8289 270.779C53.7694 270.724 53.7144 270.665 53.6645 270.602C53.6645 270.601 53.6643 270.6 53.664 270.6C53.6637 270.599 53.6633 270.598 53.6627 270.598C53.6622 270.597 53.6615 270.597 53.6607 270.596C53.66 270.596 53.6592 270.596 53.6584 270.596C53.5913 270.474 53.5182 270.352 53.4513 270.23C53.4478 270.227 53.4456 270.223 53.4452 270.218C53.3964 270.066 53.3538 269.907 53.3172 269.749C53.304 269.471 53.306 269.192 53.3233 268.914C53.4051 268.525 53.515 268.142 53.6523 267.769C53.7756 267.504 53.9161 267.247 54.0726 267.001C54.0848 266.977 54.1458 266.879 54.2128 266.769C54.2189 266.763 54.2189 266.763 54.2189 266.757C54.3102 266.654 54.4016 266.544 54.4991 266.447C54.6636 266.264 54.8403 266.105 55.0169 265.941C55.3605 265.716 55.7164 265.51 56.083 265.325C56.6646 265.119 57.2614 264.958 57.868 264.844C58.7625 264.773 59.6616 264.781 60.5546 264.868C61.4005 265.015 62.2351 265.221 63.0524 265.484C62.5571 266.445 61.9931 267.37 61.3649 268.25C61.3405 268.287 61.3161 268.323 61.2917 268.354ZM54.5173 266.349C54.4637 266.435 54.4003 266.515 54.3285 266.587C54.3768 266.497 54.4408 266.416 54.5173 266.349Z" fill="#3F3D56"/>
<path d="M141.902 193.58C141.848 195.494 141.793 197.407 141.738 199.32C141.622 203.567 141.502 207.816 141.379 212.067C141.251 216.85 141.117 221.631 140.976 226.409C140.909 228.877 140.84 231.345 140.769 233.812C140.58 240.46 140.394 247.105 140.209 253.749C140.191 254.437 140.166 255.12 140.148 255.808C140.057 259.104 139.965 262.401 139.874 265.697C139.77 269.274 139.669 272.85 139.569 276.427C139.496 279.108 139.421 281.791 139.344 284.476C138.796 303.931 138.247 323.386 137.699 342.84C137.676 344.045 137.187 345.194 136.335 346.046C135.483 346.898 134.334 347.387 133.13 347.41C131.921 347.4 130.765 346.916 129.91 346.061C129.055 345.206 128.571 344.049 128.561 342.84C128.865 331.897 129.174 320.954 129.487 310.011C129.761 300.116 130.039 290.221 130.321 280.326C130.413 277.067 130.504 273.805 130.596 270.541C130.736 265.63 130.874 260.719 131.01 255.808C131.028 255.12 131.052 254.437 131.071 253.749C131.083 253.146 131.101 252.548 131.119 251.945C131.388 242.41 131.656 232.872 131.924 223.333C132.033 219.579 132.139 215.824 132.24 212.067C132.362 207.783 132.484 203.502 132.606 199.223C132.661 197.34 132.71 195.463 132.764 193.58C132.787 192.376 133.276 191.227 134.128 190.375C134.98 189.523 136.129 189.034 137.333 189.011C138.542 189.02 139.699 189.505 140.553 190.36C141.408 191.215 141.893 192.371 141.902 193.58Z" fill="#3F3D56"/>
<path d="M392.548 194.848C387.757 212.993 382.031 230.878 375.392 248.431C373.56 253.273 371.686 258.105 369.683 262.879L370.144 261.787C369.249 264.061 368.107 266.229 366.738 268.253C366.645 268.383 366.55 268.513 366.454 268.641C366.927 268.035 367.017 267.916 366.724 268.282C366.569 268.465 366.416 268.649 366.256 268.827C365.83 269.305 365.372 269.753 364.886 270.17C364.764 270.274 364.639 270.377 364.513 270.477L365.085 270.033C365.018 270.189 364.553 270.397 364.408 270.485C363.939 270.769 363.449 271.017 362.943 271.228L364.034 270.767C363.205 271.101 362.34 271.339 361.457 271.474L362.671 271.311C361.803 271.431 360.923 271.441 360.053 271.339L361.268 271.502C360.555 271.404 359.858 271.217 359.193 270.944L360.285 271.404C359.93 271.25 359.588 271.067 359.262 270.858C359.097 270.751 358.589 270.366 359.253 270.873C359.943 271.401 359.342 270.919 359.2 270.778C359.081 270.662 358.974 270.535 358.859 270.416C358.321 269.865 359.466 271.364 359.1 270.72C358.905 270.397 358.727 270.064 358.565 269.722L359.026 270.814C358.816 270.294 358.667 269.752 358.582 269.199L358.746 270.413C358.658 269.725 358.658 269.028 358.744 268.339L358.581 269.554C358.692 268.785 358.896 268.032 359.187 267.311L358.726 268.403C358.929 267.918 359.169 267.45 359.444 267.002C359.57 266.771 359.719 266.552 359.887 266.35C359.917 266.359 359.115 267.271 359.541 266.811C359.652 266.69 359.756 266.564 359.869 266.444C360.049 266.253 360.243 266.078 360.433 265.897C361.069 265.291 359.542 266.486 360.277 266.006C360.809 265.656 361.369 265.351 361.951 265.093L360.86 265.553C361.835 265.153 362.858 264.878 363.903 264.737L362.688 264.9C363.997 264.749 365.32 264.765 366.624 264.947L365.41 264.783C367.062 265.034 368.677 265.488 370.217 266.136L369.126 265.675C372.409 267.085 375.317 269.178 378.22 271.231C381.024 273.262 383.978 275.076 387.058 276.658C393.681 279.951 400.811 282.109 408.15 283.039C418.674 284.329 429.354 282.954 439.209 279.042C449.064 275.129 457.779 268.804 464.554 260.646C465.38 259.77 465.857 258.62 465.892 257.415C465.883 256.205 465.403 255.046 464.554 254.184C462.877 252.645 459.711 252.21 458.092 254.184C456.558 256.057 454.909 257.833 453.153 259.501C452.334 260.279 451.493 261.032 450.63 261.762C450.137 262.178 449.637 262.587 449.131 262.987C448.891 263.176 448.145 263.68 449.291 262.867C449.028 263.053 448.776 263.257 448.517 263.448C444.68 266.277 440.522 268.642 436.13 270.495L437.222 270.034C432.509 272.011 427.559 273.368 422.497 274.069L423.711 273.906C418.503 274.591 413.228 274.583 408.022 273.883L409.236 274.046C404.032 273.331 398.942 271.945 394.093 269.921L395.185 270.382C390.506 268.311 386.066 265.739 381.943 262.71C379.797 261.12 377.534 259.696 375.173 258.448C372.422 257.043 369.444 256.138 366.377 255.774C360.627 255.098 354.767 257.338 351.606 262.306C348.697 266.879 348.734 273.422 352.808 277.31C357.004 281.315 363.359 281.281 368.304 278.776C373.066 276.364 375.927 271.352 377.939 266.626C382.466 255.99 386.474 245.109 390.208 234.172C393.902 223.352 397.253 212.423 400.259 201.384C400.631 200.017 400.998 198.648 401.36 197.278C401.97 194.97 400.592 192.209 398.169 191.657C397.001 191.356 395.762 191.521 394.713 192.116C393.665 192.712 392.888 193.691 392.548 194.848Z" fill="#3F3D56"/>
<path d="M438.137 193.58L436.492 251.947L434.856 310.01L433.931 342.841C433.941 344.05 434.426 345.206 435.281 346.061C436.135 346.915 437.292 347.4 438.5 347.411C439.705 347.387 440.853 346.898 441.705 346.046C442.557 345.194 443.046 344.045 443.069 342.841L444.714 284.474L446.35 226.411L447.275 193.58C447.265 192.371 446.78 191.215 445.925 190.36C445.071 189.505 443.915 189.021 442.706 189.01C441.501 189.034 440.353 189.523 439.501 190.375C438.649 191.227 438.16 192.375 438.137 193.58Z" fill="#3F3D56"/>
<path opacity="0.2" d="M279.987 326.545H281.406V261.934H314.504V260.518H281.406V233.256H306.966C306.591 232.779 306.206 232.308 305.809 231.844H281.406V213.837C280.937 213.637 280.464 213.444 279.987 213.262V231.844H252.176V208.773C251.699 208.795 251.23 208.827 250.757 208.867V231.844H228.57V214.631C228.093 214.842 227.624 215.064 227.158 215.296V231.844H208.507V233.256H227.158V260.518H208.507V261.934H227.158V326.545H228.57V261.934C231.483 261.933 234.369 262.507 237.061 263.622C239.753 264.737 242.199 266.371 244.26 268.432C246.32 270.493 247.954 272.939 249.069 275.632C250.184 278.324 250.758 281.21 250.757 284.124V326.545H252.176V261.934H279.987V326.545ZM228.57 260.518V233.256H250.757V260.518H228.57ZM252.176 260.518V233.256H252.732C256.312 233.256 259.856 233.961 263.163 235.331C266.47 236.702 269.474 238.71 272.005 241.241C274.536 243.773 276.544 246.778 277.913 250.086C279.283 253.393 279.988 256.938 279.987 260.518H252.176Z" fill="black"/>
<path d="M271.323 307.172C269.537 315.141 265.258 322.333 259.108 327.705C258.657 328.095 258.207 328.473 257.737 328.845C256.598 328.948 255.467 329.054 254.344 329.162C253.412 329.247 252.492 329.338 251.578 329.424L251.414 329.442L251.298 328.443L250.835 324.397C249.039 321.464 247.926 318.165 247.578 314.743C247.23 311.322 247.656 307.866 248.825 304.631C250.433 300.293 253.345 296.461 256.208 292.659C260.162 287.406 264.006 282.215 264.146 275.811C266.092 278.301 267.709 281.031 268.959 283.933C267.78 284.489 266.72 285.269 265.84 286.23C265.59 286.505 265.34 286.889 265.511 287.218C265.657 287.498 266.023 287.565 266.339 287.601C267.101 287.681 267.869 287.76 268.63 287.839C269.239 287.906 269.849 287.967 270.458 288.034C271.195 290.453 271.695 292.939 271.95 295.455C272.361 299.369 272.149 303.324 271.323 307.172Z" fill="#3F3D56"/>
<path d="M291.549 291.202C287.954 293.816 285.852 297.576 284.22 301.719C282.546 302.254 281.041 303.216 279.852 304.509C279.602 304.784 279.352 305.167 279.523 305.497C279.669 305.777 280.034 305.844 280.351 305.88C281.113 305.96 281.88 306.039 282.642 306.118C281.009 311.017 279.511 316.086 276.623 320.223C274.702 322.955 272.199 325.225 269.294 326.871C268.502 327.322 267.684 327.727 266.845 328.083C263.75 328.321 260.714 328.575 257.737 328.845C256.598 328.948 255.467 329.054 254.344 329.162C253.412 329.247 252.492 329.338 251.578 329.424C251.572 329.089 251.572 328.753 251.578 328.418C251.771 319.491 255.055 310.908 260.869 304.132C261.143 303.815 261.423 303.504 261.709 303.193C264.655 300.047 268.119 297.429 271.95 295.455C277.987 292.316 284.754 290.848 291.549 291.202Z" fill="#FF7872"/>
<path d="M255.398 326.036L254.697 328.108L254.344 329.162C253.412 329.247 252.492 329.338 251.578 329.424L251.414 329.442C250.403 329.546 249.397 329.649 248.392 329.753C248.13 329.448 247.868 329.137 247.612 328.82C241.254 321.119 238.201 311.213 239.122 301.268C240.044 291.323 244.863 282.146 252.529 275.744C251.725 279.955 252.663 283.988 254.204 287.991C254.04 288.058 253.881 288.125 253.729 288.199C252.55 288.754 251.49 289.534 250.61 290.496C250.36 290.77 250.11 291.154 250.281 291.483C250.427 291.763 250.792 291.83 251.109 291.866C251.871 291.946 252.638 292.025 253.4 292.104C254.009 292.171 254.618 292.232 255.227 292.299C255.514 292.33 255.8 292.36 256.086 292.39C256.129 292.482 256.166 292.567 256.208 292.659C257.945 296.424 259.815 300.208 260.869 304.132C261.133 305.116 261.341 306.115 261.49 307.123C261.959 310.531 261.655 314 260.601 317.275C259.546 320.549 257.768 323.543 255.398 326.036Z" fill="#FF7872"/>
<path d="M316.72 237.664C311.475 227.432 303.35 218.824 293.794 212.497C284.207 206.18 273.207 202.333 261.772 201.298C260.274 201.162 258.771 201.082 257.265 201.059C255.485 201.033 228.714 208.756 219.746 215.062C210.782 221.292 203.409 229.542 198.22 239.146C193.041 248.803 190.493 259.653 190.833 270.606C191.277 281.625 194.348 292.379 199.79 301.97C205.158 311.531 212.78 319.635 221.992 325.578C231.336 331.541 240.723 347.352 251.755 347.91C262.871 348.472 275.547 333.558 285.685 329.029C295.823 324.463 304.587 317.32 311.105 308.31C317.438 299.481 321.535 289.247 323.044 278.486C324.612 267.468 323.882 256.105 320.12 245.574C319.154 242.868 318.019 240.226 316.72 237.664C315.636 235.528 312.458 234.741 310.469 236.024C309.444 236.655 308.702 237.657 308.396 238.822C308.091 239.986 308.246 241.224 308.829 242.276C309.466 243.531 310.058 244.806 310.606 246.101L310.145 245.01C312.216 249.991 313.625 255.222 314.334 260.57L314.171 259.355C314.926 265.157 314.912 271.033 314.131 276.832L314.294 275.617C313.504 281.415 311.957 287.084 309.691 292.479L310.152 291.387C308.987 294.14 307.629 296.807 306.088 299.368C305.307 300.662 304.478 301.925 303.602 303.159C303.217 303.7 302.82 304.232 302.421 304.762C301.899 305.454 303.131 303.858 302.593 304.537C302.501 304.652 302.409 304.768 302.317 304.884C302.041 305.23 301.76 305.572 301.475 305.912C299.576 308.178 297.503 310.294 295.276 312.239C294.721 312.723 294.157 313.196 293.584 313.659C293.298 313.889 293.016 314.13 292.718 314.344C292.729 314.336 293.68 313.613 293.117 314.033C292.94 314.165 292.765 314.299 292.588 314.43C291.406 315.306 290.193 316.137 288.948 316.923C286.083 318.729 283.076 320.3 279.959 321.623L281.05 321.162C275.672 323.427 270.02 324.974 264.238 325.763L265.453 325.6C259.674 326.381 253.817 326.392 248.036 325.631L249.251 325.794C243.996 325.089 238.856 323.699 233.962 321.66L235.054 322.121C232.219 320.924 229.486 319.5 226.881 317.862C225.591 317.049 224.336 316.186 223.113 315.274C222.939 315.143 222.766 315.011 222.593 314.88C222.035 314.459 222.993 315.191 223.001 315.196C222.677 314.963 222.365 314.714 222.066 314.45C221.475 313.969 220.894 313.477 220.323 312.974C218.035 310.959 215.898 308.778 213.93 306.449C213.437 305.866 212.955 305.275 212.484 304.675C212.28 304.416 211.907 303.889 212.73 304.998C212.622 304.852 212.509 304.709 212.4 304.564C212.137 304.215 211.878 303.864 211.623 303.511C210.728 302.273 209.878 301.004 209.072 299.705C207.25 296.765 205.66 293.687 204.316 290.5L204.777 291.591C202.579 286.36 201.075 280.862 200.305 275.24L200.468 276.454C199.774 271.272 199.764 266.02 200.439 260.835L200.276 262.049C200.968 257.028 202.319 252.119 204.293 247.451L203.833 248.543C205.075 245.62 206.54 242.798 208.216 240.1C209.055 238.75 209.944 237.433 210.883 236.149C211.096 235.857 211.312 235.567 211.53 235.279C211.728 235.018 212.27 234.369 211.344 235.516C211.435 235.403 211.522 235.288 211.612 235.174C212.127 234.521 212.655 233.878 213.196 233.246C215.241 230.851 217.457 228.607 219.826 226.531C220.424 226.006 221.033 225.492 221.65 224.99C221.931 224.761 222.213 224.535 222.498 224.312C222.611 224.222 222.726 224.135 222.84 224.045C221.623 225.013 222.502 224.308 222.778 224.101C224.051 223.147 225.357 222.241 226.698 221.383C229.679 219.476 232.814 217.824 236.072 216.443L234.98 216.903C239.708 214.918 260.653 210.232 264.462 210.744L263.248 210.58C268.847 211.362 274.32 212.874 279.526 215.078L278.434 214.618C281.073 215.738 283.637 217.026 286.11 218.474C287.347 219.199 288.558 219.963 289.746 220.767C290.308 221.147 290.864 221.536 291.414 221.933C291.689 222.132 291.962 222.333 292.234 222.536C292.385 222.649 292.535 222.763 292.686 222.876C293.319 223.351 291.814 222.189 292.477 222.713C294.699 224.459 296.808 226.342 298.794 228.351C299.769 229.345 300.71 230.369 301.618 231.425C302.084 231.967 302.54 232.517 302.987 233.075C303.209 233.352 303.965 234.355 303.038 233.127C303.265 233.427 303.494 233.725 303.717 234.028C305.642 236.634 307.352 239.393 308.829 242.276C309.922 244.408 313.086 245.202 315.081 243.916C316.106 243.285 316.849 242.283 317.154 241.118C317.459 239.954 317.304 238.716 316.72 237.664Z" fill="#3F3D56"/>
<path d="M263.481 312.239C263.009 312.26 262.542 312.137 262.143 311.884C261.745 311.631 261.433 311.262 261.251 310.827C261.069 310.391 261.025 309.91 261.125 309.448C261.226 308.987 261.465 308.568 261.812 308.247C261.87 308.016 261.912 307.85 261.97 307.62C261.949 307.569 261.928 307.519 261.907 307.469C259.787 302.413 246.26 316.507 245.675 321.259C245.417 323.359 245.526 325.488 245.996 327.551C241.614 317.991 239.339 307.601 239.324 297.084C239.323 294.446 239.47 291.809 239.763 289.186C240.006 287.036 240.342 284.901 240.773 282.782C243.121 271.282 248.164 260.504 255.486 251.332C259.673 251.566 263.343 250.928 263.698 242.811C263.761 241.367 264.832 240.117 265.068 238.694C264.668 238.747 264.261 238.78 263.862 238.806C263.737 238.812 263.606 238.819 263.482 238.825L263.435 238.828C262.995 238.847 262.56 238.74 262.18 238.517C261.8 238.295 261.493 237.968 261.295 237.575C261.097 237.182 261.017 236.741 261.064 236.303C261.111 235.866 261.284 235.452 261.561 235.11C261.733 234.898 261.906 234.685 262.079 234.473C262.341 234.145 262.61 233.824 262.872 233.496C262.902 233.465 262.931 233.432 262.957 233.398C263.259 233.024 263.56 232.657 263.862 232.284C263.311 231.429 262.571 230.714 261.699 230.193C258.678 228.423 254.509 229.649 252.327 232.382C250.138 235.115 249.725 238.95 250.485 242.365C251.233 245.271 252.47 248.028 254.142 250.519C253.979 250.729 253.808 250.932 253.644 251.142C250.649 254.994 248.039 259.13 245.85 263.491C246.469 258.654 238.898 241.186 235.97 237.486C232.453 233.042 225.241 234.981 224.622 240.615C224.616 240.67 224.61 240.724 224.604 240.779C225.039 241.024 225.465 241.285 225.881 241.56C226.405 241.91 226.81 242.409 227.045 242.993C227.279 243.577 227.332 244.219 227.196 244.833C227.06 245.448 226.741 246.007 226.282 246.437C225.823 246.868 225.244 247.149 224.622 247.245L224.558 247.255C218.737 255.568 237.399 277.205 242.07 272.347C239.872 278.578 238.492 285.07 237.968 291.657C237.67 295.543 237.688 299.448 238.02 303.331L238 303.193C236.962 294.735 219.157 282.159 213.957 283.206C210.962 283.81 208.011 283.673 208.466 286.695C208.474 286.743 208.481 286.791 208.488 286.839C209.295 287.168 210.081 287.547 210.841 287.973C211.276 288.219 211.702 288.479 212.118 288.755C212.642 289.104 213.047 289.604 213.282 290.188C213.516 290.772 213.569 291.413 213.433 292.028C213.297 292.642 212.978 293.201 212.519 293.632C212.06 294.062 211.481 294.344 210.859 294.44L210.795 294.449C210.749 294.456 210.71 294.463 210.664 294.469C208.014 303.588 227.666 318.305 239.612 313.622H239.619C240.803 318.768 242.518 323.776 244.738 328.567H263.023C263.088 328.364 263.147 328.154 263.206 327.951C261.514 328.057 259.815 327.956 258.147 327.649C259.503 325.985 260.86 324.306 262.217 322.642C262.247 322.61 262.275 322.578 262.302 322.543C262.99 321.691 263.685 320.846 264.373 319.993L264.373 319.992C264.41 317.38 264.11 314.775 263.482 312.239L263.481 312.239ZM242.542 271.042L242.552 271.029L242.542 271.055V271.042ZM238.492 307.559L238.335 307.205C238.341 306.949 238.341 306.694 238.335 306.432C238.335 306.359 238.321 306.287 238.321 306.215C238.38 306.668 238.433 307.12 238.498 307.572L238.492 307.559Z" fill="#3F3D56"/>
<path d="M58.0265 274.185C61.7275 274.185 64.7278 271.184 64.7278 267.482C64.7278 263.781 61.7275 260.78 58.0265 260.78C54.3255 260.78 51.3252 263.781 51.3252 267.482C51.3252 271.184 54.3255 274.185 58.0265 274.185Z" fill="#3F3D56"/>
<path d="M138.442 347.301C142.143 347.301 145.143 344.3 145.143 340.598C145.143 336.897 142.143 333.896 138.442 333.896C134.741 333.896 131.741 336.897 131.741 340.598C131.741 344.3 134.741 347.301 138.442 347.301Z" fill="#3F3D56"/>
<path d="M443.656 347.301C447.357 347.301 450.357 344.3 450.357 340.598C450.357 336.897 447.357 333.896 443.656 333.896C439.955 333.896 436.955 336.897 436.955 340.598C436.955 344.3 439.955 347.301 443.656 347.301Z" fill="#3F3D56"/>
<path d="M460.105 261.999C463.806 261.999 466.806 258.998 466.806 255.296C466.806 251.595 463.806 248.594 460.105 248.594C456.404 248.594 453.403 251.595 453.403 255.296C453.403 258.998 456.404 261.999 460.105 261.999Z" fill="#3F3D56"/>
<path d="M440.61 199.85C444.311 199.85 447.311 196.849 447.311 193.148C447.311 189.446 444.311 186.446 440.61 186.446C436.909 186.446 433.909 189.446 433.909 193.148C433.909 196.849 436.909 199.85 440.61 199.85Z" fill="#3F3D56"/>
<path d="M160.983 255.296C160.979 257.008 160.317 258.653 159.134 259.891C157.951 261.128 156.338 261.864 154.628 261.944C152.918 262.025 151.242 261.446 149.948 260.325C148.654 259.205 147.839 257.63 147.674 255.926C147.508 254.222 148.004 252.52 149.058 251.171C150.113 249.823 151.645 248.931 153.339 248.681C155.032 248.431 156.757 248.842 158.156 249.828C159.555 250.814 160.521 252.301 160.855 253.98C160.941 254.414 160.984 254.855 160.983 255.296Z" fill="#3F3D56"/>
<path d="M295.009 219.348C298.71 219.348 301.71 216.347 301.71 212.645C301.71 208.944 298.71 205.943 295.009 205.943C291.308 205.943 288.308 208.944 288.308 212.645C288.308 216.347 291.308 219.348 295.009 219.348Z" fill="#3F3D56"/>
<path d="M228.605 212.645C228.601 214.357 227.939 216.002 226.756 217.24C225.573 218.477 223.96 219.213 222.25 219.293C220.54 219.374 218.865 218.795 217.57 217.675C216.276 216.554 215.462 214.979 215.296 213.275C215.13 211.571 215.626 209.869 216.68 208.52C217.735 207.172 219.267 206.28 220.961 206.03C222.654 205.78 224.379 206.191 225.778 207.177C227.177 208.164 228.144 209.65 228.477 211.329C228.563 211.763 228.606 212.204 228.605 212.645Z" fill="#3F3D56"/>
<path d="M142.097 193.148C142.093 194.86 141.431 196.505 140.248 197.742C139.066 198.98 137.452 199.715 135.742 199.796C134.033 199.877 132.357 199.297 131.063 198.177C129.768 197.057 128.954 195.482 128.788 193.778C128.623 192.074 129.118 190.371 130.173 189.023C131.227 187.674 132.76 186.782 134.453 186.532C136.146 186.282 137.871 186.693 139.27 187.68C140.669 188.666 141.636 190.153 141.969 191.832C142.055 192.265 142.098 192.706 142.097 193.148Z" fill="#3F3D56"/>
<path d="M365.068 276.622C368.769 276.622 371.769 273.621 371.769 269.92C371.769 266.218 368.769 263.217 365.068 263.217C361.367 263.217 358.367 266.218 358.367 269.92C358.367 273.621 361.367 276.622 365.068 276.622Z" fill="#3F3D56"/>
<path d="M259.675 215.692C265.058 215.692 269.422 211.327 269.422 205.943C269.422 200.559 265.058 196.194 259.675 196.194C254.291 196.194 249.927 200.559 249.927 205.943C249.927 211.327 254.291 215.692 259.675 215.692Z" fill="#3F3D56"/>
<path d="M523.275 347.813L0.72537 348C0.630112 348 0.535785 347.981 0.447778 347.945C0.359772 347.908 0.279813 347.855 0.212455 347.787C0.145098 347.72 0.0916612 347.64 0.0552077 347.552C0.0187543 347.464 0 347.37 0 347.274C0 347.179 0.0187543 347.085 0.0552077 346.997C0.0916612 346.909 0.145098 346.829 0.212455 346.761C0.279813 346.694 0.359772 346.641 0.447778 346.604C0.535785 346.568 0.630112 346.549 0.72537 346.549L523.275 346.362C523.467 346.362 523.651 346.439 523.786 346.575C523.922 346.711 523.998 346.895 523.998 347.087C523.998 347.279 523.922 347.463 523.786 347.599C523.651 347.735 523.467 347.812 523.275 347.813Z" fill="#CACACA"/>
</g>
<defs>
<clipPath id="clip0_34_4621">
<rect width="524" height="348" fill="white"/>
</clipPath>
</defs>
</svg>
