<svg width="203" height="170" viewBox="0 0 203 170" fill="none" xmlns="http://www.w3.org/2000/svg">
<g clip-path="url(#clip0_34_4375)">
<path d="M9.43274 161.992C12.2486 167.231 18.2247 169.48 18.2247 169.48C18.2247 169.48 19.6356 163.235 16.8197 157.996C14.0039 152.758 8.02775 150.509 8.02775 150.509C8.02775 150.509 6.61693 156.753 9.43274 161.992Z" fill="#2F2E41"/>
<path d="M11.3681 160.269C16.4518 163.337 18.4097 169.431 18.4097 169.431C18.4097 169.431 12.1253 170.551 7.0416 167.483C1.9579 164.414 0 158.32 0 158.32C0 158.32 6.28442 157.2 11.3681 160.269Z" fill="#E53C36"/>
<path d="M125.345 8.16119H93.6267V8.61576H125.345V8.16119Z" fill="#F2F2F2"/>
<path d="M116.736 8.50208H116.283V12.7068H116.736V8.50208Z" fill="#F2F2F2"/>
<path d="M102.916 8.50208H102.463V12.7068H102.916V8.50208Z" fill="#F2F2F2"/>
<path d="M141.431 29.9802H109.713V30.4347H141.431V29.9802Z" fill="#F2F2F2"/>
<path d="M118.775 25.8891H118.322V30.0938H118.775V25.8891Z" fill="#F2F2F2"/>
<path d="M132.595 25.8891H132.142V30.0938H132.595V25.8891Z" fill="#F2F2F2"/>
<path d="M183.572 40.2078H151.853V40.6624H183.572V40.2078Z" fill="#F2F2F2"/>
<path d="M160.916 36.1168H160.463V40.3215H160.916V36.1168Z" fill="#F2F2F2"/>
<path d="M174.736 36.1168H174.283V40.3215H174.736V36.1168Z" fill="#F2F2F2"/>
<path d="M180.4 145.666H148.681V146.121H180.4V145.666Z" fill="#F2F2F2"/>
<path d="M157.744 141.575H157.291V145.78H157.744V141.575Z" fill="#F2F2F2"/>
<path d="M171.564 141.575H171.111V145.78H171.564V141.575Z" fill="#F2F2F2"/>
<path d="M126.252 72.7091H94.533V73.1637H126.252V72.7091Z" fill="#F2F2F2"/>
<path d="M103.595 68.618H103.142V72.8227H103.595V68.618Z" fill="#F2F2F2"/>
<path d="M117.416 68.618H116.963V72.8227H117.416V68.618Z" fill="#F2F2F2"/>
<path d="M136.22 127.484H104.502V127.938H136.22V127.484Z" fill="#F2F2F2"/>
<path d="M113.564 123.393H113.111V127.598H113.564V123.393Z" fill="#F2F2F2"/>
<path d="M127.385 123.393H126.931V127.598H127.385V123.393Z" fill="#F2F2F2"/>
<path d="M186.97 110.892H155.252V111.347H186.97V110.892Z" fill="#F2F2F2"/>
<path d="M164.314 106.801H163.861V111.006H164.314V106.801Z" fill="#F2F2F2"/>
<path d="M178.135 106.801H177.681V111.006H178.135V106.801Z" fill="#F2F2F2"/>
<path d="M82.0292 159.593H28.3823V159.206H81.6431V140.428H32.8923L30.524 135.479L30.872 135.311L33.1352 140.041H82.0292V159.593Z" fill="#2F2E41"/>
<path d="M35.5224 169.079C37.7605 169.079 39.5749 167.259 39.5749 165.014C39.5749 162.769 37.7605 160.948 35.5224 160.948C33.2843 160.948 31.47 162.769 31.47 165.014C31.47 167.259 33.2843 169.079 35.5224 169.079Z" fill="#3F3D56"/>
<path d="M75.468 169.079C77.7061 169.079 79.5205 167.259 79.5205 165.014C79.5205 162.769 77.7061 160.948 75.468 160.948C73.2299 160.948 71.4155 162.769 71.4155 165.014C71.4155 167.259 73.2299 169.079 75.468 169.079Z" fill="#3F3D56"/>
<path d="M122.554 81.1908C123.939 81.1908 125.063 80.0641 125.063 78.6742C125.063 77.2843 123.939 76.1575 122.554 76.1575C121.168 76.1575 120.045 77.2843 120.045 78.6742C120.045 80.0641 121.168 81.1908 122.554 81.1908Z" fill="#3F3D56"/>
<path d="M87.7671 134.04H27.4678L14.4204 91.2573H101.204L101.125 91.509L87.7671 134.04ZM27.7533 133.653H87.484L100.678 91.6444H14.942L27.7533 133.653Z" fill="#2F2E41"/>
<path d="M83.06 131.814H30.0969L18.637 93.8706H94.8619L94.7925 94.094L83.06 131.814Z" fill="#F2F2F2"/>
<path d="M102.285 87.4352L101.912 87.3359L104.459 77.7062H119.273V78.0935H104.756L102.285 87.4352Z" fill="#2F2E41"/>
<path d="M96.8672 104.228H18.6367V104.615H96.8672V104.228Z" fill="#2F2E41"/>
<path d="M92.3871 118.492H22.9868V118.879H92.3871V118.492Z" fill="#2F2E41"/>
<path d="M58.0039 91.4509H57.6179V133.846H58.0039V91.4509Z" fill="#2F2E41"/>
<path d="M75.2834 91.4387L72.5129 133.833L72.8981 133.858L75.6686 91.464L75.2834 91.4387Z" fill="#2F2E41"/>
<path d="M40.3464 91.4383L39.9612 91.4634L42.7156 133.859L43.1008 133.834L40.3464 91.4383Z" fill="#2F2E41"/>
<path d="M203 169.325H0V169.779H203V169.325Z" fill="#2F2E41"/>
<path d="M134.898 14.0633C134.898 14.0633 138.21 23.5196 136.172 24.9744C134.133 26.4293 143.05 38.3103 143.05 38.3103L153.751 35.4006L147.891 25.4594C147.891 25.4594 147.127 15.5181 147.127 14.0633C147.127 12.6085 134.898 14.0633 134.898 14.0633Z" fill="#A0616A"/>
<path d="M134.898 14.0633C134.898 14.0633 138.21 23.5196 136.172 24.9744C134.133 26.4293 143.05 38.3103 143.05 38.3103L153.751 35.4006L147.891 25.4594C147.891 25.4594 147.127 15.5181 147.127 14.0633C147.127 12.6085 134.898 14.0633 134.898 14.0633Z" fill="#C9A7AB"/>
<path d="M129.339 81.4699C129.339 81.4699 128.372 93.5934 129.339 99.8977C130.305 106.202 131.756 123.66 131.756 123.66C131.756 123.66 131.756 156.636 137.073 157.121C142.391 157.606 146.258 158.09 146.741 156.151C147.225 154.211 144.324 153.241 145.774 152.271C147.225 151.301 147.708 147.907 145.774 144.027C143.841 140.148 145.774 100.868 145.774 100.868L154.959 125.599C154.959 125.599 155.926 145.967 156.893 148.877C157.86 151.786 155.926 157.121 159.31 157.606C162.694 158.09 166.561 155.181 168.495 154.211C170.428 153.241 165.594 153.241 166.561 152.756C167.528 152.271 170.428 150.816 169.461 150.331C168.495 149.846 167.528 126.569 167.528 126.569C167.528 126.569 164.869 76.863 161.485 74.9233C158.101 72.9835 155.926 76.3246 155.926 76.3246L129.339 81.4699Z" fill="#2F2E41"/>
<path d="M138.04 155.181V159.06C138.04 159.06 133.689 169.606 138.04 169.606C142.39 169.606 145.774 170.699 145.774 169.244V156.151L138.04 155.181Z" fill="#2F2E41"/>
<path d="M166.561 155.174V159.053C166.561 159.053 170.912 169.599 166.561 169.599C162.21 169.599 158.826 170.692 158.826 169.237V156.144L166.561 155.174Z" fill="#2F2E41"/>
<path d="M141.665 21.0949C146.471 21.0949 150.367 17.1868 150.367 12.3659C150.367 7.5451 146.471 3.63702 141.665 3.63702C136.86 3.63702 132.964 7.5451 132.964 12.3659C132.964 17.1868 136.86 21.0949 141.665 21.0949Z" fill="#C9A7AB"/>
<path d="M139.007 28.6115C139.007 28.6115 141.424 35.8855 145.291 34.4307L149.158 32.9759L155.926 79.5302C155.926 79.5302 150.608 87.2892 142.874 82.4398C135.139 77.5904 139.007 28.6115 139.007 28.6115Z" fill="#E53C36"/>
<path d="M145.774 27.1567L147.95 22.5497C147.95 22.5497 160.76 28.6115 162.694 30.5513C164.627 32.491 164.627 35.4007 164.627 35.4007L161.243 47.5242C161.243 47.5242 162.21 74.1959 162.21 75.1657C162.21 76.1356 165.594 81.47 163.177 79.5302C160.76 77.5904 160.277 75.6507 158.343 78.5603C156.409 81.47 152.059 84.8646 152.059 84.8646L145.774 27.1567Z" fill="#3F3D56"/>
<path d="M162.694 62.0723L161.243 75.6507C161.243 75.6507 152.542 83.4097 154.476 83.8946C156.409 84.3796 157.376 82.4398 157.376 82.4398C157.376 82.4398 160.76 85.8344 162.694 83.8946C164.627 81.9549 169.461 63.5271 169.461 63.5271L162.694 62.0723Z" fill="#A0616A"/>
<path d="M141.851 0.0295173C139.922 -0.0396604 137.858 -0.0738801 136.231 0.968919C135.483 1.49225 134.826 2.13679 134.289 2.87616C132.705 4.88498 131.336 7.41253 131.925 9.90492L132.608 9.63755C132.608 10.3028 132.461 10.9598 132.176 11.5609C132.273 11.2802 132.595 11.734 132.509 12.018L131.756 14.4955C132.993 14.0404 134.533 14.9618 134.721 16.2705C134.807 13.3928 135.105 10.0931 137.432 8.40807C138.605 7.55834 140.09 7.29894 141.519 7.06859C142.837 6.85608 144.219 6.65344 145.482 7.08878C146.745 7.52413 147.82 8.81953 147.534 10.1277C148.116 9.92656 148.767 10.3336 149.055 10.8797C149.342 11.4259 149.357 12.0701 149.366 12.6878C149.987 13.1277 150.693 12.2541 150.946 11.5352C151.54 9.84777 152.067 8.05156 151.747 6.29112C151.428 4.53069 149.998 2.84833 148.214 2.84236C148.43 2.60379 148.546 2.29009 148.536 1.96761L147.066 1.84299C147.439 1.78997 147.782 1.60842 148.037 1.32944C147.446 1.98104 142.805 0.0637481 141.851 0.0295173Z" fill="#2F2E41"/>
<path d="M141.424 25.7018C141.424 25.7018 137.488 21.8333 136.072 22.0703C134.656 22.3072 132.722 25.7018 132.722 25.7018C132.722 25.7018 121.121 29.5813 121.604 33.4609C122.087 37.3404 127.405 56.2531 127.405 56.2531C127.405 56.2531 131.756 79.0452 127.888 81.4699C124.021 83.8946 146.258 90.1989 146.741 87.2892C147.225 84.3796 148.191 55.2832 146.741 50.9187C145.291 46.5543 141.424 25.7018 141.424 25.7018Z" fill="#3F3D56"/>
<path d="M158.343 33.4609H164.32C164.32 33.4609 168.495 51.8886 168.978 53.8284C169.461 55.7681 170.428 64.982 169.945 64.982C169.461 64.982 159.793 63.0422 159.793 64.497L158.343 33.4609Z" fill="#3F3D56"/>
<path d="M158.141 79.0939H135.258C133.025 68.789 132.838 58.8326 135.258 49.3201H158.141C154.448 58.6615 154.217 68.5497 158.141 79.0939Z" fill="#F2F2F2"/>
<path d="M125.955 66.4368L132.723 69.3465C132.723 69.3465 145.774 71.2862 145.774 65.9519C145.774 60.6175 132.723 63.5272 132.723 63.5272L128.372 62.1317L125.955 66.4368Z" fill="#A0616A"/>
<path d="M127.405 30.5512L121.604 32.006L117.253 57.7079C117.253 57.7079 115.803 64.497 118.22 64.982C120.637 65.4669 127.405 69.3464 127.405 69.3464C127.405 69.3464 128.372 62.0723 130.305 62.0723L125.471 58.1928L128.372 41.2199L127.405 30.5512Z" fill="#3F3D56"/>
<path d="M45.3689 80.2094H13.6501V80.6639H45.3689V80.2094Z" fill="#F2F2F2"/>
<path d="M22.7126 76.1183H22.2595V80.323H22.7126V76.1183Z" fill="#F2F2F2"/>
<path d="M36.533 76.1183H36.0798V80.323H36.533V76.1183Z" fill="#F2F2F2"/>
<path d="M56.4705 12.9341H24.7517V13.3886H56.4705V12.9341Z" fill="#F2F2F2"/>
<path d="M47.8611 13.275H47.408V17.4797H47.8611V13.275Z" fill="#F2F2F2"/>
<path d="M34.0408 13.275H33.5876V17.4797H34.0408V13.275Z" fill="#F2F2F2"/>
<path d="M88.4158 57.7085H56.697V58.1631H88.4158V57.7085Z" fill="#F2F2F2"/>
<path d="M79.8064 58.0494H79.3533V62.2541H79.8064V58.0494Z" fill="#F2F2F2"/>
<path d="M65.9861 58.0494H65.533V62.2541H65.9861V58.0494Z" fill="#F2F2F2"/>
<path d="M34.4939 57.4813H2.77515V57.9358H34.4939V57.4813Z" fill="#F2F2F2"/>
<path d="M25.8845 57.8221H25.4314V62.0268H25.8845V57.8221Z" fill="#F2F2F2"/>
<path d="M12.0642 57.8221H11.6111V62.0268H12.0642V57.8221Z" fill="#F2F2F2"/>
<path d="M72.5564 34.7531H40.8376V35.2077H72.5564V34.7531Z" fill="#F2F2F2"/>
<path d="M49.9001 30.662H49.447V34.8668H49.9001V30.662Z" fill="#F2F2F2"/>
<path d="M63.7205 30.662H63.2673V34.8668H63.7205V30.662Z" fill="#F2F2F2"/>
</g>
<defs>
<clipPath id="clip0_34_4375">
<rect width="203" height="170" fill="white"/>
</clipPath>
</defs>
</svg>
