<svg width="25" height="22" viewBox="0 0 25 22" fill="none" xmlns="http://www.w3.org/2000/svg">
<path d="M9.04761 16.0293H20.4148C20.8738 16.0293 21.2742 15.6777 21.2742 15.1699C21.2742 14.6621 20.8738 14.3105 20.4148 14.3105H9.26245C8.78394 14.3105 8.49097 13.9687 8.42261 13.4707L8.27612 12.455H20.4929C21.9773 12.455 22.7586 11.5468 22.9832 10.0723L23.7156 5.16016C23.7351 5.02344 23.7547 4.85742 23.7547 4.75977C23.7547 4.19336 23.3543 3.8125 22.6902 3.8125H7.01636L6.86011 2.73828C6.74292 1.89844 6.41089 1.46875 5.32691 1.46875H1.96753C1.48901 1.46875 1.06909 1.88867 1.06909 2.38672C1.06909 2.875 1.48901 3.29492 1.96753 3.29492H5.0437L6.56714 13.666C6.78198 15.1308 7.56323 16.0293 9.04761 16.0293ZM21.7527 5.53125L21.1277 9.89649C21.0593 10.4043 20.7859 10.7265 20.2976 10.7265L8.02222 10.7363L7.27027 5.53125H21.7527ZM9.83862 20.9121C10.7859 20.9121 11.5281 20.1601 11.5281 19.2226C11.5281 18.2754 10.7859 17.5234 9.83862 17.5234C8.90112 17.5234 8.14917 18.2754 8.14917 19.2226C8.14917 20.1601 8.90112 20.9121 9.83862 20.9121ZM18.8718 20.9121C19.8191 20.9121 20.5711 20.1601 20.5711 19.2226C20.5711 18.2754 19.8191 17.5234 18.8718 17.5234C17.9343 17.5234 17.1726 18.2754 17.1726 19.2226C17.1726 20.1601 17.9343 20.9121 18.8718 20.9121Z" fill="#5B636F"/>
</svg>
