<svg width="20" height="25" viewBox="0 0 20 25" fill="none" xmlns="http://www.w3.org/2000/svg">
<path d="M19.995 21.2439L18.5625 5.77078C18.5454 5.60432 18.4656 5.45016 18.3389 5.33851C18.2122 5.22686 18.0476 5.16578 17.8775 5.16725H14.9375C14.895 2.58594 12.6987 0.5 10 0.5C7.3025 0.5 5.105 2.58471 5.06375 5.16725H2.12C1.95004 5.16522 1.78549 5.22597 1.65888 5.3375C1.53227 5.44902 1.45283 5.6032 1.43625 5.76955L0.00500001 21.2463C0.00500001 21.2648 0 21.2844 0 21.3041C0 23.0668 1.68125 24.5 3.75 24.5H16.25C18.3188 24.5 20 23.0668 20 21.3041C20 21.2844 20 21.2635 19.995 21.2439ZM10 1.82507C11.9375 1.82507 13.5163 3.31608 13.5563 5.16725H6.44375C6.485 3.31608 8.06375 1.82507 10 1.82507ZM16.25 23.1725H3.75C2.4525 23.1725 1.4 22.3489 1.38 21.3324L2.74875 6.496H5.05875V8.50942C5.05875 8.87695 5.365 9.17196 5.74875 9.17196C6.13125 9.17196 6.43875 8.87695 6.43875 8.50819V6.49846H13.5563V8.51065C13.5563 8.87818 13.8625 9.17319 14.2463 9.17319C14.63 9.17319 14.9363 8.87818 14.9363 8.50942V6.49846H17.2463L18.6213 21.3348C18.6 22.3501 17.5425 23.1749 16.2487 23.1749L16.25 23.1725Z" fill="#3D3D3D"/>
</svg>
