<svg width="24" height="25" viewBox="0 0 24 25" fill="none" xmlns="http://www.w3.org/2000/svg">
<path d="M20.2105 16.3756C17.0526 14.5263 16.8556 14.4809 15.1579 13.9099C16.9768 12.6872 18.9474 10.0573 18.9474 7.74444C18.9474 4.01055 15.8248 0.960022 12 0.960022C8.17516 0.960022 5.06274 4.00171 5.06274 7.7356C5.06274 10.0484 7.02442 12.6884 8.8421 13.9112C7.14442 14.4821 5.68421 15.144 3.78947 16.3769C1.52337 18.5899 0 21.2628 0 24.3916H1.89474C1.89474 18.9423 6.41684 15.144 12 15.144C17.5832 15.144 22.1053 18.9423 22.1053 24.3929H24C24 21.2628 22.4766 18.5899 20.2105 16.3769V16.3756ZM12 13.315C9.20842 13.315 6.31579 10.4602 6.31579 7.73434C6.31579 5.00971 9.20842 2.19539 12 2.19539C14.7916 2.19539 17.6842 5.01981 17.6842 7.74444C17.6842 10.4691 14.7916 13.315 12 13.315Z" fill="#3D3D3D"/>
</svg>
