<svg width="20" height="20" viewBox="0 0 20 20" fill="none" xmlns="http://www.w3.org/2000/svg">
<path d="M18.8753 17.6479L13.0785 11.851C13.978 10.6881 14.4646 9.26618 14.4646 7.77065C14.4646 5.98047 13.766 4.3019 12.5026 3.03627C11.2392 1.77065 9.55615 1.07422 7.76821 1.07422C5.98026 1.07422 4.29722 1.77288 3.03383 3.03627C1.76821 4.29966 1.07178 5.98047 1.07178 7.77065C1.07178 9.55859 1.77044 11.2416 3.03383 12.505C4.29722 13.7706 5.97803 14.4671 7.76821 14.4671C9.26374 14.4671 10.6834 13.9805 11.8463 13.0831L17.6432 18.8778C17.6602 18.8948 17.6804 18.9083 17.7026 18.9175C17.7248 18.9267 17.7486 18.9314 17.7727 18.9314C17.7967 18.9314 17.8205 18.9267 17.8427 18.9175C17.865 18.9083 17.8851 18.8948 17.9021 18.8778L18.8753 17.9068C18.8924 17.8898 18.9058 17.8696 18.9151 17.8474C18.9243 17.8252 18.929 17.8014 18.929 17.7773C18.929 17.7533 18.9243 17.7295 18.9151 17.7073C18.9058 17.6851 18.8924 17.6649 18.8753 17.6479ZM11.3039 11.3064C10.3575 12.2506 9.10303 12.7706 7.76821 12.7706C6.43338 12.7706 5.17892 12.2506 4.23249 11.3064C3.2883 10.3599 2.76821 9.10547 2.76821 7.77065C2.76821 6.43583 3.2883 5.17913 4.23249 4.23493C5.17892 3.29074 6.43338 2.77065 7.76821 2.77065C9.10303 2.77065 10.3597 3.2885 11.3039 4.23493C12.2481 5.18136 12.7682 6.43583 12.7682 7.77065C12.7682 9.10547 12.2481 10.3622 11.3039 11.3064Z" fill="#F45650"/>
</svg>
